<svg width="27" height="24" viewBox="0 0 27 24" fill="none" xmlns="http://www.w3.org/2000/svg">
<path d="M14.9999 24C14.7347 24 14.4803 23.8947 14.2928 23.7071C14.1053 23.5196 13.9999 23.2652 13.9999 23C13.9999 22.7348 14.1053 22.4804 14.2928 22.2929C14.4803 22.1054 14.7347 22 14.9999 22C17.2394 22.0004 19.4142 21.2489 21.1759 19.8662C22.9375 18.4834 24.184 16.5493 24.7156 14.3738C25.2472 12.1983 25.0332 9.90727 24.1078 7.86788C23.1824 5.8285 21.5992 4.15877 19.6119 3.12625C17.6246 2.09373 15.3482 1.75818 13.1475 2.17337C10.9468 2.58856 8.94919 3.73045 7.4747 5.41608C6.00022 7.10171 5.13423 9.2335 5.01551 11.4699C4.89678 13.7062 5.53218 15.9177 6.81991 17.75C6.97173 17.9664 7.03171 18.2341 6.98674 18.4945C6.94177 18.755 6.7955 18.9871 6.57991 19.14C6.47243 19.2167 6.35081 19.2714 6.22208 19.3009C6.09335 19.3304 5.96006 19.3341 5.82989 19.3118C5.69973 19.2895 5.57527 19.2416 5.46371 19.1709C5.35215 19.1002 5.25569 19.0082 5.17991 18.9C3.63474 16.7014 2.87225 14.0478 3.0146 11.3643C3.15695 8.68086 4.1959 6.12282 5.96501 4.10005C7.73411 2.07727 10.131 0.706843 12.7716 0.208318C15.4122 -0.290207 18.1437 0.112026 20.5285 1.35058C22.9133 2.58912 24.8134 4.5923 25.9243 7.03918C27.0352 9.48605 27.2927 12.235 26.6555 14.8456C26.0182 17.4562 24.5232 19.7774 22.4098 21.4372C20.2965 23.0971 17.6872 23.9995 14.9999 24Z" fill="black"/>
<path d="M5.60766 19.6763L0.934602 17.8979C0.686728 17.8036 0.486478 17.6147 0.377905 17.3727C0.269333 17.1307 0.261332 16.8555 0.355661 16.6077C0.449991 16.3598 0.638925 16.1595 0.8809 16.051C1.12287 15.9424 1.39807 15.9344 1.64594 16.0287L5.38439 17.4514L6.80707 13.713C6.9014 13.4651 7.09034 13.2648 7.33231 13.1563C7.57428 13.0477 7.84948 13.0397 8.09735 13.134C8.34523 13.2284 8.54548 13.4173 8.65405 13.6593C8.76262 13.9012 8.77062 14.1764 8.67629 14.4243L6.89794 19.0974C6.80361 19.3452 6.61468 19.5455 6.3727 19.6541C6.13073 19.7626 5.85553 19.7706 5.60766 19.6763Z" fill="black"/>
<path d="M11.9999 16C11.8683 16.0008 11.7378 15.9755 11.616 15.9258C11.4942 15.876 11.3833 15.8027 11.2899 15.71C11.1962 15.617 11.1218 15.5064 11.071 15.3846C11.0202 15.2627 10.9941 15.132 10.9941 15C10.9941 14.868 11.0202 14.7373 11.071 14.6154C11.1218 14.4936 11.1962 14.383 11.2899 14.29L13.9999 11.59V7C13.9999 6.73478 14.1053 6.48043 14.2928 6.29289C14.4803 6.10536 14.7347 6 14.9999 6C15.2651 6 15.5195 6.10536 15.707 6.29289C15.8946 6.48043 15.9999 6.73478 15.9999 7V12C16.0007 12.1316 15.9754 12.2621 15.9257 12.3839C15.8759 12.5057 15.8026 12.6166 15.7099 12.71L12.7099 15.71C12.6165 15.8027 12.5057 15.876 12.3838 15.9258C12.262 15.9755 12.1315 16.0008 11.9999 16Z" fill="black"/>
</svg>
