<svg width="1229" height="307" viewBox="0 0 1229 307" fill="none" xmlns="http://www.w3.org/2000/svg">
<path d="M418.896 2.67029e-05H464.799L522.3 53.9783H513.465C502.003 53.9783 490.907 50.5932 482.117 44.4173L418.896 2.67029e-05Z" fill="#2C5C4F"/>
<path d="M375.449 296.204H316.015L234.837 97.1184C230.551 105.364 224.281 118.357 218.489 134.768C209.632 159.859 195.911 200.668 205.387 250.24C207.405 260.793 211.508 276.987 220.826 296.204H161.392C134.465 230.237 107.542 164.271 80.6153 98.3016C76.4397 115.222 73.0506 133.824 71.146 153.941C65.8112 210.357 74.0203 259.072 84.5603 296.204H0C26.8728 228.564 53.7425 160.923 80.6153 93.2823H139.645C153.713 128.486 167.778 163.69 181.846 198.894C186.66 187.303 191.903 175.437 197.617 163.34C209.49 138.188 222.067 114.829 234.837 93.2823H294.755L375.449 296.204Z" fill="#2C5C4F"/>
<path d="M859.043 194.693V81.1048C883.203 81.1048 917.028 90.8462 917.028 117.227V296.203H859.043V197.306C825.219 197.405 791.394 197.5 757.572 197.596V296.203H699.588V81.1048C723.748 81.1048 757.572 90.8462 757.572 117.227V194.693H859.043Z" fill="#2C5C4F"/>
<path d="M584.837 287.83C577.269 291.425 569.367 293.083 561.139 293.083C527.895 293.083 490.703 264.885 463.053 223.691C444.62 196.324 433.758 168.954 433.758 146.561C433.758 127.211 441.989 111.726 459.762 103.157C467.333 99.5628 475.23 97.9047 483.461 97.9047C517.033 97.9047 553.899 126.102 581.546 167.018C599.979 194.39 610.841 221.757 610.841 244.15C610.841 263.503 602.61 279.261 584.837 287.83ZM521.97 84.6376C499.917 84.6376 477.535 89.3359 457.128 99.0136C414.339 119.467 390.312 157.067 390.312 195.77C390.312 214.292 395.906 233.093 407.428 250.231C431.784 286.172 476.547 306.35 522.301 306.35C544.679 306.35 567.064 301.652 587.471 291.701C630.26 271.517 654.287 233.921 654.287 195.494C654.287 176.695 648.693 157.894 636.842 140.478C612.487 104.542 568.049 84.6376 521.97 84.6376Z" fill="#2C5C4F"/>
<path d="M1159.15 287.08C1151.58 290.674 1143.68 292.332 1135.45 292.332C1102.2 292.332 1065.01 264.135 1037.36 222.941C1018.93 195.574 1008.07 168.204 1008.07 145.811C1008.07 126.461 1016.3 110.976 1034.07 102.407C1041.64 98.8123 1049.54 97.1542 1057.77 97.1542C1091.34 97.1542 1128.21 125.352 1155.86 166.267C1174.29 193.64 1185.15 221.007 1185.15 243.4C1185.15 262.753 1176.92 278.511 1159.15 287.08ZM1096.28 83.8871C1074.23 83.8871 1051.85 88.5854 1031.44 98.2631C988.649 118.717 964.622 156.316 964.622 195.019C964.622 213.542 970.216 232.343 981.738 249.48C1006.09 285.422 1050.86 305.599 1096.61 305.599C1118.99 305.599 1141.37 300.901 1161.78 290.95C1204.57 270.767 1228.6 233.17 1228.6 194.743C1228.6 175.945 1223 157.144 1211.15 139.728C1186.8 103.792 1142.36 83.8871 1096.28 83.8871Z" fill="#2C5C4F"/>
<path d="M869.253 198.788H749.781V193.899H869.253V198.788Z" fill="#2C5C4F"/>
</svg>
